<?xml version="1.0" standalone="no"?><!DOCTYPE svg PUBLIC "-//W3C//DTD SVG 1.1//EN" "http://www.w3.org/Graphics/SVG/1.1/DTD/svg11.dtd"><svg t="1575272850226" class="icon" viewBox="0 0 1024 1024" version="1.1" xmlns="http://www.w3.org/2000/svg" p-id="6769" xmlns:xlink="http://www.w3.org/1999/xlink" width="32" height="32"><defs><style type="text/css"></style></defs><path d="M547.822368 508.111436 544.064788 499.19537 539.487539 502.935554Z" p-id="6770" fill="#bfbfbf"></path><path d="M863.034447 362.592179c-19.316951-45.667086-46.962591-86.677105-82.172511-121.889071s-76.219939-62.860676-121.887025-82.178651c-47.294143-20.002566-97.518011-30.145577-149.280932-30.145577-51.762921 0-101.987812 10.143011-149.280932 30.145577-45.667086 19.317974-86.677105 46.965661-121.887025 82.178651s-62.857607 76.221985-82.172511 121.889071c-20.001543 47.292096-30.143531 97.512894-30.143531 149.270698 0 51.767014 10.141988 101.997022 30.143531 149.289118 19.314904 45.669132 46.962591 86.678128 82.172511 121.887025s76.219939 62.853513 121.887025 82.168418c47.294143 19.999496 97.518011 30.139437 149.280932 30.139437 51.762921 0 101.986789-10.139941 149.278885-30.139437 45.669132-19.314904 86.679152-46.959521 121.889071-82.168418s62.85556-76.217892 82.172511-121.887025c20.00052-47.292096 30.143531-97.522104 30.143531-149.289118C893.177977 460.105073 883.034966 409.884274 863.034447 362.592179zM509.693979 850.229305c-66.960041 0-130.938168-19.330254-185.590905-55.320956-0.039909-0.375553-0.090051-0.754177-0.149403-1.130753-1.528819-9.682523-2.303462-19.632129-2.303462-29.570479 0-103.966886 84.584444-188.55133 188.552354-188.55133 103.937211 0 188.500165 84.584444 188.500165 188.55133 0 10.128685-0.801249 20.201088-2.367931 30.016641C641.454886 830.658573 577.081763 850.229305 509.693979 850.229305zM510.203586 526.092973c-48.480154 0-87.922469-39.441291-87.922469-87.920422 0-48.463782 39.442314-87.891769 87.922469-87.891769 48.462758 0 87.890746 39.426965 87.890746 87.891769C598.094332 486.651682 558.666344 526.092973 510.203586 526.092973zM748.957295 751.138472c-1.740644 1.741667-3.50994 3.458775-5.284353 5.15951-1.964748-59.44181-26.022677-115.044176-68.27192-157.309792-24.563442-24.569582-53.633524-42.985-85.343737-54.493102 32.255635-24.297382 53.151547-62.913888 53.151547-106.322537 0-73.340355-59.665915-133.007293-133.00627-133.007293-73.358775 0-133.037992 59.666938-133.037992 133.007293 0 43.409672 20.902052 82.027202 53.16792 106.324584-31.714306 11.507078-60.788481 29.921473-85.356017 54.489008-42.479487 42.481534-66.578348 98.432847-68.329225 158.214395-2.094708-1.992377-4.168949-4.013407-6.219655-6.063089-63.908542-63.905472-99.103112-148.879795-99.103112-239.274572 0-90.37738 35.19457-175.348634 99.103112-239.258199 63.908542-63.912635 148.882865-99.111299 239.266385-99.111299 90.382497 0 175.35682 35.19764 239.263315 99.111299 63.908542 63.908542 99.105159 148.879795 99.105159 239.258199C848.062454 602.257653 812.86686 687.231977 748.957295 751.138472z" p-id="6771" fill="#bfbfbf"></path></svg>